<svg version="1.1" id="Layer_1" xmlns="http://www.w3.org/2000/svg" xmlns:xlink="http://www.w3.org/1999/xlink" x="0px" y="0px"
	 width="100%" viewBox="0 0 500 125" enable-background="new 0 0 500 125" xml:space="preserve">
<path fill="#FEFEFE" opacity="1.000000" stroke="none" 
	d="
M328.000000,126.000000 
	C218.666702,126.000000 109.833397,126.000000 1.000073,126.000000 
	C1.000049,84.333382 1.000049,42.666756 1.000024,1.000101 
	C167.666580,1.000067 334.333160,1.000067 500.999817,1.000034 
	C500.999878,42.666561 500.999878,84.333122 500.999939,125.999840 
	C443.500000,126.000000 386.000000,126.000000 328.000000,126.000000 
M123.316132,118.916275 
	C123.943687,120.160553 124.571236,121.404831 125.452988,123.153114 
	C127.905823,120.979958 129.816147,119.287453 131.984818,117.366074 
	C133.849152,119.758827 135.482742,121.855438 137.371429,124.279457 
	C139.379883,121.636314 140.923828,119.604454 142.678284,117.295570 
	C144.915466,119.338905 146.792862,121.053635 149.115677,123.175179 
	C150.623169,120.141144 151.804825,117.762932 153.072937,115.210670 
	C155.770569,116.836639 157.951523,118.151184 160.533722,119.707573 
	C161.464890,116.392708 162.187973,113.818649 162.964523,111.054222 
	C165.779861,112.174118 168.026474,113.067787 170.952515,114.231712 
	C171.220551,110.824280 171.437302,108.069054 171.655518,105.295120 
	C174.875076,105.698524 177.373306,106.011543 180.434372,106.395081 
	C179.878433,103.186615 179.464172,100.795799 178.985733,98.034698 
	C181.994476,97.724007 184.768692,97.437538 187.910568,97.113106 
	C186.789215,94.009476 185.924225,91.615402 184.984467,89.014427 
	C188.011780,88.171875 190.558472,87.463081 193.580460,86.622002 
	C191.800613,83.760956 190.459869,81.605766 188.955490,79.187546 
	C191.774536,77.849648 194.066849,76.761719 196.951385,75.392731 
	C194.754517,72.867943 193.011810,70.865120 191.143005,68.717377 
	C193.639145,66.858398 195.672455,65.344109 198.070328,63.558308 
	C195.386337,61.408424 193.304886,59.741169 191.217224,58.068954 
	C193.280518,55.687557 194.927094,53.787098 196.884735,51.527630 
	C193.817245,50.080647 191.512314,48.993382 188.961578,47.790165 
	C190.581451,45.157948 191.927780,42.970253 193.635559,40.195179 
	C190.342346,39.375343 187.730484,38.725132 184.838882,38.005280 
	C185.935730,35.129795 186.842163,32.753529 188.033264,29.630924 
	C184.587631,29.451424 181.931381,29.313047 178.988449,29.159737 
	C179.467651,26.134493 179.863647,23.634487 180.371643,20.427372 
	C177.068146,20.931877 174.555252,21.315643 171.560394,21.773014 
	C171.379410,18.784971 171.218140,16.122444 171.020569,12.860462 
	C167.967850,13.969647 165.581512,14.836709 162.885101,15.816433 
	C162.076340,12.945270 161.354141,10.381355 160.495224,7.332111 
	C157.682907,8.981359 155.484222,10.270760 153.005249,11.724523 
	C151.624420,8.993406 150.425934,6.622924 149.060364,3.921993 
	C146.561737,6.106263 144.643555,7.783099 142.490219,9.665512 
	C140.681320,7.205431 139.173645,5.155029 137.329300,2.646736 
	C135.360458,5.234234 133.809647,7.272347 132.050522,9.584231 
	C129.784073,7.667122 127.756226,5.951837 125.334435,3.903325 
	C123.908768,6.873688 122.809265,9.164488 121.578392,11.728999 
	C118.985603,10.219617 116.781502,8.936508 114.024193,7.331350 
	C113.193916,10.478436 112.513351,13.058054 111.746750,15.963816 
	C108.875465,14.838820 106.530922,13.920202 103.495995,12.731087 
	C103.258049,16.224140 103.077286,18.877621 102.892227,21.594202 
	C99.794266,21.305000 97.164093,21.059467 94.038773,20.767710 
	C94.683777,24.004089 95.155319,26.370110 95.698990,29.098042 
	C92.473419,29.338205 89.818192,29.535904 86.682121,29.769403 
	C87.774895,32.880596 88.620193,35.287228 89.583771,38.030586 
	C86.694901,38.770721 84.233765,39.401276 81.149269,40.191532 
	C82.764816,43.041031 84.079613,45.360065 85.447762,47.773212 
	C82.633919,49.247818 80.294952,50.473564 77.648582,51.860405 
	C79.944435,54.333363 81.679893,56.202686 83.605644,58.276989 
	C80.976494,60.150196 78.890610,61.636337 76.386078,63.420761 
	C79.086899,65.493797 81.218636,67.130043 83.540565,68.912262 
	C81.400375,71.200226 79.655441,73.065651 77.522476,75.345894 
	C80.522240,76.773689 82.835068,77.874519 85.456261,79.122124 
	C84.013084,81.739548 82.731560,84.063789 81.184113,86.870331 
	C84.381935,87.671242 86.845718,88.288307 89.603134,88.978920 
	C88.598198,91.835579 87.752228,94.240349 86.664230,97.333115 
	C89.955635,97.535561 92.614128,97.699066 95.514664,97.877472 
	C95.078552,100.859108 94.711418,103.369141 94.252579,106.506134 
	C97.510239,106.048363 100.043678,105.692360 102.798386,105.305267 
	C103.110031,108.329933 103.394676,111.092514 103.722374,114.272964 
	C106.873314,113.010155 109.132347,112.104797 111.765190,111.049622 
	C112.565620,114.040314 113.257370,116.624916 114.131935,119.892578 
	C116.150627,118.553520 117.564018,117.749573 118.823364,116.751305 
	C121.077545,114.964447 122.410286,115.520866 123.316132,118.916275 
M385.784271,62.579727 
	C379.203247,57.652504 371.821075,60.641399 364.645325,59.866962 
	C364.645325,69.188576 364.645325,77.923462 364.645325,87.012596 
	C369.343994,87.012596 373.800354,87.065094 378.254913,86.996994 
	C382.253479,86.935860 386.150574,86.071259 387.745239,81.963417 
	C389.291290,77.980934 387.613586,74.666420 383.661377,72.587730 
	C387.185089,69.818871 388.365021,66.886032 385.784271,62.579727 
M239.812012,80.391937 
	C239.953934,81.622597 239.645599,83.539513 240.309265,83.974930 
	C245.443024,87.343018 251.251602,88.675568 256.818787,85.865067 
	C259.131195,84.697685 261.470886,81.213852 261.553192,78.709602 
	C261.626099,76.493156 258.921082,73.764923 256.811127,72.030792 
	C255.136917,70.654823 252.395706,70.661560 250.347504,69.622299 
	C249.244614,69.062698 248.602631,67.594704 247.752701,66.536560 
	C249.054413,66.073036 250.443787,65.065559 251.639709,65.258339 
	C254.190796,65.669556 256.641541,66.703110 259.378082,67.558121 
	C260.164886,65.809593 260.886047,64.206955 261.651611,62.505562 
	C256.591614,59.287788 251.215607,58.338345 246.163116,60.398964 
	C243.620789,61.435837 241.169846,64.735199 240.378357,67.498581 
	C239.438446,70.780136 241.992661,73.362640 245.369095,74.507462 
	C247.565277,75.252098 249.858200,75.782722 251.938599,76.766853 
	C252.946579,77.243668 253.565613,78.542709 254.360718,79.469513 
	C253.213348,80.187347 251.946472,81.641769 250.941971,81.478813 
	C248.380997,81.063370 245.973648,79.777527 243.428314,79.150742 
	C242.418045,78.901962 241.205612,79.474129 239.812012,80.391937 
M398.271820,70.685425 
	C401.958710,72.655502 405.706116,74.523750 409.296234,76.656715 
	C410.397156,77.310783 411.067169,78.690147 411.934509,79.737381 
	C410.705231,80.367851 409.315430,81.724518 408.276276,81.494820 
	C404.945557,80.758598 401.744568,79.435257 398.344330,78.288155 
	C397.672729,79.660217 396.912598,81.213181 396.100586,82.872139 
	C401.717926,87.017853 407.473480,88.287285 413.768646,86.294769 
	C417.262787,85.188835 419.294678,82.786644 419.277039,78.906334 
	C419.260468,75.259521 417.391907,73.008476 414.105316,71.806046 
	C411.929779,71.010109 409.628357,70.501350 407.555664,69.505363 
	C406.538055,69.016388 405.912415,67.711830 405.109406,66.776360 
	C406.343903,66.219398 407.672729,65.053215 408.794098,65.226837 
	C411.485352,65.643494 414.079193,66.689224 416.854706,67.523911 
	C417.664368,65.774200 418.403473,64.176956 419.738342,61.292271 
	C414.658356,60.707623 410.307251,59.599689 406.039398,59.859467 
	C399.799530,60.239269 397.663147,63.412636 398.271820,70.685425 
M336.088074,82.019920 
	C339.685974,82.019920 343.283905,82.019920 346.641541,82.019920 
	C349.190369,87.742165 349.190369,87.742165 355.834808,86.319122 
	C352.512390,78.374329 349.234802,70.438271 345.869568,62.539585 
	C344.575684,59.502605 338.348816,58.374584 337.085693,61.090958 
	C333.179077,69.492371 329.673126,78.080124 326.038025,86.534134 
	C331.068054,88.187752 333.850128,86.479057 336.088074,82.019920 
M223.579376,59.930702 
	C223.374023,64.852745 223.085693,69.773186 222.990036,74.697357 
	C222.915939,78.511421 221.707474,81.394623 217.415710,81.366302 
	C213.179108,81.338341 211.811279,78.570282 211.875412,74.683182 
	C211.956207,69.785118 211.894913,64.884697 211.894913,60.029480 
	C209.207993,60.029480 207.268173,60.029480 204.932724,60.029480 
	C204.932724,65.489304 204.815308,70.770905 204.962112,76.045158 
	C205.150299,82.806061 209.461807,86.899200 216.421799,87.196838 
	C224.172485,87.528290 229.278397,83.858925 229.773849,76.970856 
	C230.174637,71.398865 229.855118,65.775078 229.855118,59.847111 
	C227.795929,59.847111 226.165634,59.847111 223.579376,59.930702 
M284.044189,67.831917 
	C284.957703,62.520538 289.739960,66.937508 291.886932,64.644623 
	C291.886932,63.157955 291.886932,61.606937 291.886932,60.049255 
	C284.170410,60.049255 276.765198,60.049255 269.259888,60.049255 
	C269.259888,61.857849 269.259888,63.429199 269.259888,65.404282 
	C271.923004,65.404282 274.337158,65.404282 277.110870,65.404282 
	C277.110870,72.724243 277.110870,79.644310 277.110870,86.780258 
	C279.536316,86.780258 281.594604,86.780258 284.043274,86.780258 
	C284.043274,80.673325 284.043274,74.726273 284.044189,67.831917 
M308.023010,70.496056 
	C308.023010,67.049850 308.023010,63.603642 308.023010,60.079235 
	C305.526978,60.079235 303.471191,60.079235 301.371368,60.079235 
	C301.371368,69.162201 301.371368,78.002914 301.371368,86.709335 
	C307.602234,86.709335 313.500641,86.709335 319.693054,86.709335 
	C319.577972,84.666252 319.481720,82.957153 319.373596,81.037979 
	C315.369690,81.037979 311.926331,81.037979 308.023010,81.037979 
	C308.023010,77.702751 308.023010,74.592911 308.023010,70.496056 
z"/>
<path fill="#060606" opacity="1.000000" stroke="none" 
	d="
M123.199677,118.558235 
	C122.410286,115.520866 121.077545,114.964447 118.823364,116.751305 
	C117.564018,117.749573 116.150627,118.553520 114.131935,119.892578 
	C113.257370,116.624916 112.565620,114.040314 111.765190,111.049622 
	C109.132347,112.104797 106.873314,113.010155 103.722374,114.272964 
	C103.394676,111.092514 103.110031,108.329933 102.798386,105.305267 
	C100.043678,105.692360 97.510239,106.048363 94.252579,106.506134 
	C94.711418,103.369141 95.078552,100.859108 95.514664,97.877472 
	C92.614128,97.699066 89.955635,97.535561 86.664230,97.333115 
	C87.752228,94.240349 88.598198,91.835579 89.603134,88.978920 
	C86.845718,88.288307 84.381935,87.671242 81.184113,86.870331 
	C82.731560,84.063789 84.013084,81.739548 85.456261,79.122124 
	C82.835068,77.874519 80.522240,76.773689 77.522476,75.345894 
	C79.655441,73.065651 81.400375,71.200226 83.540565,68.912262 
	C81.218636,67.130043 79.086899,65.493797 76.386078,63.420761 
	C78.890610,61.636337 80.976494,60.150196 83.605644,58.276989 
	C81.679893,56.202686 79.944435,54.333363 77.648582,51.860405 
	C80.294952,50.473564 82.633919,49.247818 85.447762,47.773212 
	C84.079613,45.360065 82.764816,43.041031 81.149269,40.191532 
	C84.233765,39.401276 86.694901,38.770721 89.583771,38.030586 
	C88.620193,35.287228 87.774895,32.880596 86.682121,29.769403 
	C89.818192,29.535904 92.473419,29.338205 95.698990,29.098042 
	C95.155319,26.370110 94.683777,24.004089 94.038773,20.767710 
	C97.164093,21.059467 99.794266,21.305000 102.892227,21.594202 
	C103.077286,18.877621 103.258049,16.224140 103.495995,12.731087 
	C106.530922,13.920202 108.875465,14.838820 111.746750,15.963816 
	C112.513351,13.058054 113.193916,10.478436 114.024193,7.331350 
	C116.781502,8.936508 118.985603,10.219617 121.578392,11.728999 
	C122.809265,9.164488 123.908768,6.873688 125.334435,3.903325 
	C127.756226,5.951837 129.784073,7.667122 132.050522,9.584231 
	C133.809647,7.272347 135.360458,5.234234 137.329300,2.646736 
	C139.173645,5.155029 140.681320,7.205431 142.490219,9.665512 
	C144.643555,7.783099 146.561737,6.106263 149.060364,3.921993 
	C150.425934,6.622924 151.624420,8.993406 153.005249,11.724523 
	C155.484222,10.270760 157.682907,8.981359 160.495224,7.332111 
	C161.354141,10.381355 162.076340,12.945270 162.885101,15.816433 
	C165.581512,14.836709 167.967850,13.969647 171.020569,12.860462 
	C171.218140,16.122444 171.379410,18.784971 171.560394,21.773014 
	C174.555252,21.315643 177.068146,20.931877 180.371643,20.427372 
	C179.863647,23.634487 179.467651,26.134493 178.988449,29.159737 
	C181.931381,29.313047 184.587631,29.451424 188.033264,29.630924 
	C186.842163,32.753529 185.935730,35.129795 184.838882,38.005280 
	C187.730484,38.725132 190.342346,39.375343 193.635559,40.195179 
	C191.927780,42.970253 190.581451,45.157948 188.961578,47.790165 
	C191.512314,48.993382 193.817245,50.080647 196.884735,51.527630 
	C194.927094,53.787098 193.280518,55.687557 191.217224,58.068954 
	C193.304886,59.741169 195.386337,61.408424 198.070328,63.558308 
	C195.672455,65.344109 193.639145,66.858398 191.143005,68.717377 
	C193.011810,70.865120 194.754517,72.867943 196.951385,75.392731 
	C194.066849,76.761719 191.774536,77.849648 188.955490,79.187546 
	C190.459869,81.605766 191.800613,83.760956 193.580460,86.622002 
	C190.558472,87.463081 188.011780,88.171875 184.984467,89.014427 
	C185.924225,91.615402 186.789215,94.009476 187.910568,97.113106 
	C184.768692,97.437538 181.994476,97.724007 178.985733,98.034698 
	C179.464172,100.795799 179.878433,103.186615 180.434372,106.395081 
	C177.373306,106.011543 174.875076,105.698524 171.655518,105.295120 
	C171.437302,108.069054 171.220551,110.824280 170.952515,114.231712 
	C168.026474,113.067787 165.779861,112.174118 162.964523,111.054222 
	C162.187973,113.818649 161.464890,116.392708 160.533722,119.707573 
	C157.951523,118.151184 155.770569,116.836639 153.072937,115.210670 
	C151.804825,117.762932 150.623169,120.141144 149.115677,123.175179 
	C146.792862,121.053635 144.915466,119.338905 142.678284,117.295570 
	C140.923828,119.604454 139.379883,121.636314 137.371429,124.279457 
	C135.482742,121.855438 133.849152,119.758827 131.984818,117.366074 
	C129.816147,119.287453 127.905823,120.979958 125.452988,123.153114 
	C124.571236,121.404831 123.943687,120.160553 123.199677,118.558235 
M139.975586,25.532171 
	C137.421494,27.921238 135.561295,26.425636 133.591431,24.546585 
	C131.948318,22.979239 129.799728,20.208324 128.331039,20.475677 
	C119.439568,22.094231 111.735207,26.198233 104.871780,33.804230 
	C120.671402,33.804230 135.283524,33.787735 149.895569,33.810410 
	C158.673721,33.824036 164.668518,37.591553 167.209900,44.606266 
	C169.473923,50.855419 167.574982,55.587547 160.274612,61.720459 
	C161.256760,63.037041 162.362946,64.289864 163.199158,65.702507 
	C164.123642,67.264297 165.070679,68.901199 165.527832,70.632179 
	C166.394775,73.914894 168.049332,76.241638 171.672119,75.879890 
	C175.506363,75.497040 176.210434,72.543823 176.220535,69.288422 
	C176.222473,68.662720 176.366455,68.037468 176.450836,67.364632 
	C178.186951,67.042702 179.713165,66.759689 181.146439,66.493919 
	C181.717926,58.191776 181.717926,58.191776 176.723999,55.614410 
	C171.149963,52.737644 170.809113,52.198982 174.069641,46.496731 
	C175.919815,43.261036 175.610367,40.933491 173.443924,38.040154 
	C168.113876,30.921679 161.440765,25.716270 153.270966,22.258413 
	C148.253769,20.134895 143.783783,19.636982 139.975586,25.532171 
M131.644638,76.063683 
	C133.760345,76.063683 135.876038,76.063683 138.179764,76.063683 
	C138.179764,80.866508 138.179764,85.129349 138.179764,90.020935 
	C126.307129,90.020935 114.644218,90.020935 102.981316,90.020935 
	C102.882195,90.704346 102.783081,91.387764 102.683968,92.071175 
	C104.728096,92.447060 106.831070,93.335014 108.805923,93.108086 
	C116.391365,92.236450 116.825920,92.241241 117.742096,99.692184 
	C118.108910,102.675346 119.318512,104.041977 121.973373,104.959564 
	C132.280548,108.521996 142.576477,108.655273 152.749619,104.749359 
	C154.393143,104.118332 156.222183,102.118469 156.627869,100.429985 
	C158.578583,92.310707 158.443466,92.100235 166.512299,93.408073 
	C169.658661,93.918060 170.930862,92.844559 171.785126,89.913422 
	C166.570587,89.913422 161.732132,89.742668 156.911484,89.962479 
	C152.288895,90.173248 149.712204,88.054352 148.613464,83.758659 
	C147.748917,80.378479 147.441116,76.703697 145.849884,73.710632 
	C144.618042,71.393623 142.035965,68.944534 139.600754,68.318878 
	C136.058029,67.408661 132.107605,68.085304 127.707962,68.085304 
	C129.185699,71.109001 125.550591,74.978226 131.644638,76.063683 
M100.894943,53.964832 
	C97.416924,56.246025 91.989662,56.735897 93.050049,63.070728 
	C93.768364,67.362068 94.102104,71.717789 94.580276,75.808853 
	C99.849174,75.808853 104.093948,75.808853 108.507080,75.808853 
	C108.507080,66.350090 108.507080,57.159908 108.507080,47.679707 
	C106.203224,47.679707 104.137146,47.679707 102.433739,47.679707 
	C102.121452,49.765728 101.842537,51.628826 100.894943,53.964832 
M146.033096,54.901417 
	C146.908417,53.482311 148.525314,52.006317 148.422211,50.662270 
	C148.341080,49.604912 146.180801,47.949871 144.869751,47.875793 
	C139.338196,47.563251 133.778824,47.743496 128.221100,47.743496 
	C128.221100,50.477215 128.221100,52.766697 128.221100,55.110794 
	C134.030411,55.110794 139.643112,55.110794 146.033096,54.901417 
M92.109474,46.262009 
	C91.716148,47.959301 91.003601,49.680107 91.125854,51.339413 
	C91.162086,51.831196 93.783943,52.763771 94.793137,52.377254 
	C95.828217,51.980827 97.214241,49.563488 96.920547,49.170151 
	C95.928322,47.841293 94.258812,47.018154 92.109474,46.262009 
M160.919678,101.341614 
	C162.454636,102.157211 163.931366,103.305733 165.559189,103.590508 
	C166.063690,103.678764 167.641190,101.347748 167.521240,100.256989 
	C167.398880,99.144455 165.364807,97.171967 164.914520,97.360413 
	C163.383255,98.001274 162.181717,99.430008 160.919678,101.341614 
M179.344055,52.347107 
	C180.922623,51.704418 182.730865,51.326286 183.949219,50.268639 
	C184.349655,49.921024 183.588531,47.281708 182.688873,46.661057 
	C181.806702,46.052471 179.039795,46.362782 178.899902,46.820213 
	C178.417358,48.398163 178.721024,50.216541 179.344055,52.347107 
M137.366302,21.067297 
	C138.486145,19.728485 139.910233,18.513901 140.538803,16.974487 
	C140.725204,16.518000 138.741791,14.499373 137.626312,14.380307 
	C136.541443,14.264508 134.225952,15.854720 134.316315,16.366234 
	C134.604721,17.998577 135.760254,19.477720 137.366302,21.067297 
M112.502007,103.205200 
	C112.535233,101.487839 112.864861,99.685883 112.414116,98.106659 
	C112.285339,97.655495 109.535988,97.307259 108.639137,97.898705 
	C107.710640,98.511024 106.867630,101.168243 107.215027,101.457756 
	C108.498543,102.527443 110.289749,102.987938 112.502007,103.205200 
z"/>
<path fill="#0B0B0B" opacity="1.000000" stroke="none" 
	d="
M386.005768,62.880569 
	C388.365021,66.886032 387.185089,69.818871 383.661377,72.587730 
	C387.613586,74.666420 389.291290,77.980934 387.745239,81.963417 
	C386.150574,86.071259 382.253479,86.935860 378.254913,86.996994 
	C373.800354,87.065094 369.343994,87.012596 364.645325,87.012596 
	C364.645325,77.923462 364.645325,69.188576 364.645325,59.866962 
	C371.821075,60.641399 379.203247,57.652504 386.005768,62.880569 
M380.181030,80.643303 
	C381.441681,75.823433 379.617645,74.870407 371.526306,76.242165 
	C371.526306,77.922066 371.526306,79.629044 371.526306,81.986618 
	C374.405426,81.666908 376.944916,81.384903 380.181030,80.643303 
M371.361877,65.734604 
	C371.361877,67.307198 371.361877,68.879799 371.361877,70.793144 
	C373.194092,70.793144 374.623749,71.146072 375.744751,70.708435 
	C377.330353,70.089439 378.688019,68.886688 380.143097,67.933434 
	C378.741943,66.957481 377.450439,65.697189 375.903015,65.100639 
	C374.779938,64.667671 373.318146,65.113297 371.361877,65.734604 
z"/>
<path fill="#0C0C0C" opacity="1.000000" stroke="none" 
	d="
M239.948608,80.032242 
	C241.205612,79.474129 242.418045,78.901962 243.428314,79.150742 
	C245.973648,79.777527 248.380997,81.063370 250.941971,81.478813 
	C251.946472,81.641769 253.213348,80.187347 254.360718,79.469513 
	C253.565613,78.542709 252.946579,77.243668 251.938599,76.766853 
	C249.858200,75.782722 247.565277,75.252098 245.369095,74.507462 
	C241.992661,73.362640 239.438446,70.780136 240.378357,67.498581 
	C241.169846,64.735199 243.620789,61.435837 246.163116,60.398964 
	C251.215607,58.338345 256.591614,59.287788 261.651611,62.505562 
	C260.886047,64.206955 260.164886,65.809593 259.378082,67.558121 
	C256.641541,66.703110 254.190796,65.669556 251.639709,65.258339 
	C250.443787,65.065559 249.054413,66.073036 247.752701,66.536560 
	C248.602631,67.594704 249.244614,69.062698 250.347504,69.622299 
	C252.395706,70.661560 255.136917,70.654823 256.811127,72.030792 
	C258.921082,73.764923 261.626099,76.493156 261.553192,78.709602 
	C261.470886,81.213852 259.131195,84.697685 256.818787,85.865067 
	C251.251602,88.675568 245.443024,87.343018 240.309265,83.974930 
	C239.645599,83.539513 239.953934,81.622597 239.948608,80.032242 
z"/>
<path fill="#0A0A0A" opacity="1.000000" stroke="none" 
	d="
M398.149353,70.300224 
	C397.663147,63.412636 399.799530,60.239269 406.039398,59.859467 
	C410.307251,59.599689 414.658356,60.707623 419.738342,61.292271 
	C418.403473,64.176956 417.664368,65.774200 416.854706,67.523911 
	C414.079193,66.689224 411.485352,65.643494 408.794098,65.226837 
	C407.672729,65.053215 406.343903,66.219398 405.109406,66.776367 
	C405.912415,67.711830 406.538055,69.016388 407.555664,69.505363 
	C409.628357,70.501350 411.929779,71.010109 414.105316,71.806046 
	C417.391907,73.008476 419.260468,75.259521 419.277039,78.906334 
	C419.294678,82.786644 417.262787,85.188835 413.768646,86.294769 
	C407.473480,88.287285 401.717926,87.017853 396.100586,82.872139 
	C396.912598,81.213181 397.672729,79.660217 398.344330,78.288155 
	C401.744568,79.435257 404.945557,80.758598 408.276276,81.494820 
	C409.315430,81.724518 410.705231,80.367851 411.934509,79.737381 
	C411.067169,78.690147 410.397156,77.310783 409.296234,76.656715 
	C405.706116,74.523750 401.958710,72.655502 398.149353,70.300224 
z"/>
<path fill="#080808" opacity="1.000000" stroke="none" 
	d="
M335.660034,82.103897 
	C333.850128,86.479057 331.068054,88.187752 326.038025,86.534134 
	C329.673126,78.080124 333.179077,69.492371 337.085693,61.090958 
	C338.348816,58.374584 344.575684,59.502605 345.869568,62.539585 
	C349.234802,70.438271 352.512390,78.374329 355.834808,86.319122 
	C349.190369,87.742165 349.190369,87.742165 346.641541,82.019920 
	C343.283905,82.019920 339.685974,82.019920 335.660034,82.103897 
M339.902771,76.880241 
	C341.325439,76.810478 342.748108,76.740715 344.755371,76.642281 
	C343.496429,73.368088 342.410278,70.543327 340.891937,66.594551 
	C339.440430,70.305214 338.387909,72.813339 337.547852,75.390724 
	C337.450409,75.689552 338.531403,76.372467 339.902771,76.880241 
z"/>
<path fill="#080808" opacity="1.000000" stroke="none" 
	d="
M224.057358,59.888908 
	C226.165634,59.847111 227.795929,59.847111 229.855118,59.847111 
	C229.855118,65.775078 230.174637,71.398865 229.773849,76.970856 
	C229.278397,83.858925 224.172485,87.528290 216.421799,87.196838 
	C209.461807,86.899200 205.150299,82.806061 204.962112,76.045158 
	C204.815308,70.770905 204.932724,65.489304 204.932724,60.029480 
	C207.268173,60.029480 209.207993,60.029480 211.894913,60.029480 
	C211.894913,64.884697 211.956207,69.785118 211.875412,74.683182 
	C211.811279,78.570282 213.179108,81.338341 217.415710,81.366302 
	C221.707474,81.394623 222.915939,78.511421 222.990036,74.697357 
	C223.085693,69.773186 223.374023,64.852745 224.057358,59.888908 
z"/>
<path fill="#030303" opacity="1.000000" stroke="none" 
	d="
M284.043732,68.305573 
	C284.043274,74.726273 284.043274,80.673325 284.043274,86.780258 
	C281.594604,86.780258 279.536316,86.780258 277.110870,86.780258 
	C277.110870,79.644310 277.110870,72.724243 277.110870,65.404282 
	C274.337158,65.404282 271.923004,65.404282 269.259888,65.404282 
	C269.259888,63.429199 269.259888,61.857849 269.259888,60.049255 
	C276.765198,60.049255 284.170410,60.049255 291.886932,60.049255 
	C291.886932,61.606937 291.886932,63.157955 291.886932,64.644623 
	C289.739960,66.937508 284.957703,62.520538 284.043732,68.305573 
z"/>
<path fill="#070707" opacity="1.000000" stroke="none" 
	d="
M308.023010,70.989563 
	C308.023010,74.592911 308.023010,77.702751 308.023010,81.037979 
	C311.926331,81.037979 315.369690,81.037979 319.373596,81.037979 
	C319.481720,82.957153 319.577972,84.666252 319.693054,86.709335 
	C313.500641,86.709335 307.602234,86.709335 301.371368,86.709335 
	C301.371368,78.002914 301.371368,69.162201 301.371368,60.079235 
	C303.471191,60.079235 305.526978,60.079235 308.023010,60.079235 
	C308.023010,63.603642 308.023010,67.049850 308.023010,70.989563 
z"/>
<path fill="#F5F5F5" opacity="1.000000" stroke="none" 
	d="
M140.227997,25.276104 
	C143.783783,19.636982 148.253769,20.134895 153.270966,22.258413 
	C161.440765,25.716270 168.113876,30.921679 173.443924,38.040154 
	C175.610367,40.933491 175.919815,43.261036 174.069641,46.496731 
	C170.809113,52.198982 171.149963,52.737644 176.723999,55.614410 
	C181.717926,58.191776 181.717926,58.191776 181.146439,66.493919 
	C179.713165,66.759689 178.186951,67.042702 176.450836,67.364632 
	C176.366455,68.037468 176.222473,68.662720 176.220535,69.288422 
	C176.210434,72.543823 175.506363,75.497040 171.672119,75.879890 
	C168.049332,76.241638 166.394775,73.914894 165.527832,70.632179 
	C165.070679,68.901199 164.123642,67.264297 163.199158,65.702507 
	C162.362946,64.289864 161.256760,63.037041 160.274612,61.720459 
	C167.574982,55.587547 169.473923,50.855419 167.209900,44.606266 
	C164.668518,37.591553 158.673721,33.824036 149.895569,33.810410 
	C135.283524,33.787735 120.671402,33.804230 104.871780,33.804230 
	C111.735207,26.198233 119.439568,22.094231 128.331039,20.475677 
	C129.799728,20.208324 131.948318,22.979239 133.591431,24.546585 
	C135.561295,26.425636 137.421494,27.921238 140.227997,25.276104 
z"/>
<path fill="#F7F7F7" opacity="1.000000" stroke="none" 
	d="
M131.171600,76.063141 
	C125.550591,74.978226 129.185699,71.109001 127.707962,68.085304 
	C132.107605,68.085304 136.058029,67.408661 139.600754,68.318878 
	C142.035965,68.944534 144.618042,71.393623 145.849884,73.710632 
	C147.441116,76.703697 147.748917,80.378479 148.613464,83.758659 
	C149.712204,88.054352 152.288895,90.173248 156.911484,89.962479 
	C161.732132,89.742668 166.570587,89.913422 171.785126,89.913422 
	C170.930862,92.844559 169.658661,93.918060 166.512299,93.408073 
	C158.443466,92.100235 158.578583,92.310707 156.627869,100.429985 
	C156.222183,102.118469 154.393143,104.118332 152.749619,104.749359 
	C142.576477,108.655273 132.280548,108.521996 121.973373,104.959564 
	C119.318512,104.041977 118.108910,102.675346 117.742096,99.692184 
	C116.825920,92.241241 116.391365,92.236450 108.805923,93.108086 
	C106.831070,93.335014 104.728096,92.447060 102.683968,92.071175 
	C102.783081,91.387764 102.882195,90.704346 102.981316,90.020935 
	C114.644218,90.020935 126.307129,90.020935 138.179764,90.020935 
	C138.179764,85.129349 138.179764,80.866508 138.179764,76.063683 
	C135.876038,76.063683 133.760345,76.063683 131.171600,76.063141 
z"/>
<path fill="#F2F2F2" opacity="1.000000" stroke="none" 
	d="
M101.229279,53.728378 
	C101.842537,51.628826 102.121452,49.765728 102.433739,47.679707 
	C104.137146,47.679707 106.203224,47.679707 108.507080,47.679707 
	C108.507080,57.159908 108.507080,66.350090 108.507080,75.808853 
	C104.093948,75.808853 99.849174,75.808853 94.580276,75.808853 
	C94.102104,71.717789 93.768364,67.362068 93.050049,63.070728 
	C91.989662,56.735897 97.416924,56.246025 101.229279,53.728378 
z"/>
<path fill="#E4E4E4" opacity="1.000000" stroke="none" 
	d="
M145.644455,55.006104 
	C139.643112,55.110794 134.030411,55.110794 128.221100,55.110794 
	C128.221100,52.766697 128.221100,50.477215 128.221100,47.743496 
	C133.778824,47.743496 139.338196,47.563251 144.869751,47.875793 
	C146.180801,47.949871 148.341080,49.604912 148.422211,50.662270 
	C148.525314,52.006317 146.908417,53.482311 145.644455,55.006104 
z"/>
<path fill="#E2E2E2" opacity="1.000000" stroke="none" 
	d="
M92.478851,46.131844 
	C94.258812,47.018154 95.928322,47.841293 96.920547,49.170151 
	C97.214241,49.563488 95.828217,51.980827 94.793137,52.377254 
	C93.783943,52.763771 91.162086,51.831196 91.125854,51.339413 
	C91.003601,49.680107 91.716148,47.959301 92.478851,46.131844 
z"/>
<path fill="#E4E4E4" opacity="1.000000" stroke="none" 
	d="
M160.886978,100.949753 
	C162.181717,99.430008 163.383255,98.001274 164.914520,97.360413 
	C165.364807,97.171967 167.398880,99.144455 167.521240,100.256989 
	C167.641190,101.347748 166.063690,103.678764 165.559189,103.590508 
	C163.931366,103.305733 162.454636,102.157211 160.886978,100.949753 
z"/>
<path fill="#E8E8E8" opacity="1.000000" stroke="none" 
	d="
M179.034668,52.145233 
	C178.721024,50.216541 178.417358,48.398163 178.899902,46.820213 
	C179.039795,46.362782 181.806702,46.052471 182.688873,46.661057 
	C183.588531,47.281708 184.349655,49.921024 183.949219,50.268639 
	C182.730865,51.326286 180.922623,51.704418 179.034668,52.145233 
z"/>
<path fill="#E4E4E4" opacity="1.000000" stroke="none" 
	d="
M136.973602,21.041660 
	C135.760254,19.477720 134.604721,17.998577 134.316315,16.366234 
	C134.225952,15.854720 136.541443,14.264508 137.626312,14.380307 
	C138.741791,14.499373 140.725204,16.518000 140.538803,16.974487 
	C139.910233,18.513901 138.486145,19.728485 136.973602,21.041660 
z"/>
<path fill="#E9E9E9" opacity="1.000000" stroke="none" 
	d="
M112.196060,103.441315 
	C110.289749,102.987938 108.498543,102.527443 107.215027,101.457756 
	C106.867630,101.168243 107.710640,98.511024 108.639137,97.898705 
	C109.535988,97.307259 112.285339,97.655495 112.414116,98.106659 
	C112.864861,99.685883 112.535233,101.487839 112.196060,103.441315 
z"/>
<path fill="#EAEAEA" opacity="1.000000" stroke="none" 
	d="
M379.832733,80.873100 
	C376.944916,81.384903 374.405426,81.666908 371.526306,81.986618 
	C371.526306,79.629044 371.526306,77.922066 371.526306,76.242165 
	C379.617645,74.870407 381.441681,75.823433 379.832733,80.873100 
z"/>
<path fill="#E6E6E6" opacity="1.000000" stroke="none" 
	d="
M371.684631,65.450882 
	C373.318146,65.113297 374.779938,64.667671 375.903015,65.100639 
	C377.450439,65.697189 378.741943,66.957481 380.143097,67.933441 
	C378.688019,68.886688 377.330353,70.089439 375.744751,70.708435 
	C374.623749,71.146072 373.194092,70.793144 371.361877,70.793144 
	C371.361877,68.879799 371.361877,67.307198 371.684631,65.450882 
z"/>
<path fill="#E1E1E1" opacity="1.000000" stroke="none" 
	d="
M339.484406,76.878777 
	C338.531403,76.372467 337.450409,75.689552 337.547852,75.390724 
	C338.387909,72.813339 339.440430,70.305214 340.891937,66.594551 
	C342.410278,70.543327 343.496429,73.368088 344.755371,76.642281 
	C342.748108,76.740715 341.325439,76.810478 339.484406,76.878777 
z"/>
</svg>